<svg width="198" height="100" viewBox="0 0 198 100" fill="none" xmlns="http://www.w3.org/2000/svg">
  <!-- S -->
  <path d="M31.592 96.22q-8.35 0 -14.6 -2.44 -6.202 -2.49 -9.765 -7.08 -3.565 -4.64 -4.004 -11.134l-0.05 -0.78H17.09l0.098 0.536a8.87 8.87 0 0 0 2.44 4.737q2.002 1.953 5.177 3.076 3.174 1.074 7.177 1.074 4.102 0 7.032 -1.074 2.977 -1.123 4.59 -3.125 1.66 -2.05 1.66 -4.737v-0.048q0 -3.565 -2.832 -5.567 -2.783 -2.05 -9.375 -3.418l-7.422 -1.465q-10.4 -2.1 -15.674 -7.08t-5.273 -12.94v-0.048q0 -6.445 3.466 -11.23 3.467 -4.834 9.522 -7.471 6.055 -2.686 13.867 -2.686 8.154 0 14.063 2.54 5.956 2.538 9.277 7.177 3.32 4.64 3.662 10.791l0.049 0.928H44.678l-0.05 -0.586q-0.39 -2.783 -2.099 -4.736 -1.709 -2.002 -4.54 -3.077 -2.784 -1.074 -6.446 -1.074 -3.76 0 -6.494 1.123 -2.734 1.075 -4.2 2.979 -1.415 1.904 -1.415 4.443v0.049q0 3.32 2.832 5.371 2.832 2.05 8.886 3.272l7.471 1.513q7.373 1.466 12.11 4.053 4.735 2.587 6.982 6.543 2.295 3.906 2.295 9.424v0.049q0 6.786 -3.418 11.767 -3.369 4.932 -9.766 7.666 -6.348 2.686 -15.234 2.686" fill="#000"/>

  <!-- R -->
  <path d="M57.86 95V24.541h29.1q7.911 0 13.526 2.686 5.664 2.685 8.643 7.763 3.027 5.03 3.027 12.11v0.097q0 6.934 -3.467 12.354 -3.417 5.42 -9.277 7.715L114.256 95h-16.7L84.423 69.463H72.606V95zm14.746 -36.719H85.35q5.517 0 8.593 -2.93 3.126 -2.977 3.125 -8.154V47.1q0 -5.078 -3.222 -8.057t-8.692 -2.978H72.606z" fill="#000"/>

  <!-- line -->
  <path stroke="#000" stroke-width="5" d="M106 86.5h38"/>

  <!-- file icon -->
  <path d="m112.667 74.667 -3.5 -3.5H104.5a1.166 1.166 0 0 0 -1.167 1.166v9.334a1.166 1.166 0 0 0 1.167 1.166h7a1.17 1.17 0 0 0 1.167 -1.166zm-3.5 -3.5v3.5h3.5m-2.334 2.916h-4.666m4.666 2.334h-4.666m1.166 -4.667h-1.166" stroke="#000" stroke-width="1.6" stroke-linecap="round" stroke-linejoin="round"/>

  <!-- folders icon -->
  <path d="M118 83.833q-0.62 0 -1.059 -0.465a1.57 1.57 0 0 1 -0.441 -1.118v-9.5q0 -0.653 0.441 -1.118 0.44 -0.465 1.059 -0.465h4.5l1.5 1.583h6q0.62 0 1.059 0.465 0.441 0.465 0.441 1.118v7.917q0 0.653 -0.441 1.118 -0.44 0.465 -1.059 0.465zm0 -1.583h12v-7.917h-6.619l-1.5 -1.583H118zm18 1.583q-0.62 0 -1.059 -0.465a1.57 1.57 0 0 1 -0.441 -1.118v-9.5q0 -0.653 0.441 -1.118 0.44 -0.465 1.059 -0.465h4.5l1.5 1.583h6q0.62 0 1.059 0.465 0.441 0.465 0.441 1.118v7.917q0 0.653 -0.441 1.118 -0.44 0.465 -1.059 0.465zm0 -1.583h12v-7.917h-6.619l-1.5 -1.583H136z" fill="#000"/>

  <!-- S -->
  <path d="M166.408 96.22q8.35 0 14.6 -2.44 6.201 -2.49 9.765 -7.08 3.565 -4.64 4.004 -11.134l0.049 -0.78H180.91l-0.098 0.536a8.87 8.87 0 0 1 -2.441 4.737q-2.002 1.953 -5.176 3.076 -3.174 1.074 -7.177 1.074 -4.103 0 -7.032 -1.074 -2.977 -1.123 -4.59 -3.125 -1.66 -2.05 -1.66 -4.737v-0.048q0 -3.565 2.832 -5.567 2.784 -2.05 9.375 -3.418l7.422 -1.465q10.4 -2.1 15.674 -7.08t5.273 -12.94v-0.048q0 -6.445 -3.466 -11.23 -3.466 -4.834 -9.522 -7.471 -6.054 -2.686 -13.867 -2.686 -8.154 0 -14.062 2.54 -5.958 2.538 -9.278 7.177 -3.32 4.64 -3.662 10.791l-0.049 0.928h13.916l0.049 -0.586q0.39 -2.783 2.1 -4.736 1.709 -2.002 4.541 -3.077 2.783 -1.074 6.445 -1.074 3.76 0 6.494 1.123 2.735 1.075 4.199 2.979 1.416 1.904 1.416 4.443v0.049q0 3.32 -2.832 5.371 -2.832 2.05 -8.886 3.272l-7.471 1.513q-7.373 1.466 -12.109 4.053 -4.737 2.587 -6.983 6.543 -2.295 3.906 -2.295 9.424v0.049q0 6.786 3.418 11.767 3.37 4.932 9.766 7.666 6.348 2.686 15.234 2.686" fill="#000"/>
</svg>